<?xml version="1.0" encoding="UTF-8"?>
<svg width="380px" height="380px" viewBox="0 0 380 380" version="1.1" xmlns="http://www.w3.org/2000/svg" xmlns:xlink="http://www.w3.org/1999/xlink">
    <!-- Generator: Sketch 51.3 (57544) - http://www.bohemiancoding.com/sketch -->
    <title>logo</title>
    <desc>Created with Sketch.</desc>
    <defs></defs>
    <g id="logo" stroke="none" stroke-width="1" fill="none" fill-rule="evenodd">
        <g id="noun_Certificate_1905724" transform="translate(79.000000, 35.000000)" fill="#7A7A7A" fill-rule="nonzero">
            <g id="Group">
                <path d="M83.7640588,0.554893617 C83.6576885,0.584426053 83.5528373,0.619205981 83.4498882,0.659106383 L82.8212118,0.659106383 L82.4020941,1.07931915 C82.037548,1.2971119 81.7175464,1.58230104 81.4590794,1.91974468 L1.82672647,81.864383 C1.71819022,81.9279007 1.61330121,81.9974857 1.51255588,82.0728085 L1.30299706,82.281234 C1.05914866,82.4945994 0.847393628,82.7422359 0.674320588,83.0164383 L0.36015,83.3324383 L0.36015,84.0679787 C0.35521,84.1732538 0.35521,84.2787036 0.36015,84.3839787 L0.36015,84.6999787 C0.340462479,84.9096215 0.340462479,85.1206551 0.36015,85.3302979 L0.36015,286.400426 L0.36015,289.762128 L3.71309118,289.762128 L157.740503,289.762128 L157.740503,310.457438 C157.728902,311.581405 158.278295,312.636829 159.204576,313.270035 C160.130857,313.90324 161.311474,314.03045 162.350797,313.609034 L172.305009,309.722234 C172.444578,309.730996 172.584557,309.730996 172.724126,309.722234 L182.887562,313.609034 C183.926885,314.03045 185.107502,313.90324 186.033783,313.270035 C186.960064,312.636829 187.509456,311.581405 187.497856,310.457438 L187.497856,289.762128 L218.303003,289.762128 L221.655944,289.762128 L221.655944,286.400426 L221.655944,4.01744681 L221.655944,0.655744681 L218.303003,0.655744681 L84.8157088,0.655744681 C84.4740969,0.565902537 84.1204738,0.53073146 83.7679147,0.551531915 L83.7640588,0.554893617 Z M87.5361176,7.38351915 L214.947882,7.38351915 L214.947882,283.043094 L187.495676,283.043094 L187.495676,275.163936 C193.321412,270.648498 197.135382,263.524379 197.135382,255.624043 C197.135382,242.093528 186.112253,231.146817 172.617,231.146817 C159.121747,231.146817 148.098618,242.093528 148.098618,255.624043 C148.098618,263.553626 151.901524,270.650851 157.738324,275.163936 L157.738324,283.043094 L7.06385294,283.043094 L7.06385294,87.9601574 L84.1815,87.9601574 C86.0332016,87.9599718 87.534256,86.4549952 87.5344412,84.5984553 L87.5344412,7.38351915 L87.5361176,7.38351915 Z M80.8302353,12.215966 L80.8302353,81.2350723 L11.991,81.2350723 L80.8302353,12.215966 Z M172.617,237.870894 C182.488059,237.870894 190.324553,245.727864 190.324553,255.624715 C190.324553,261.756796 187.335976,267.205106 182.675824,270.437383 C182.567287,270.500901 182.462398,270.570486 182.361653,270.645809 C182.326784,270.645263 182.29191,270.645263 182.257041,270.645809 C181.666924,271.029379 181.104904,271.38034 180.475791,271.69634 C179.846712,272.01234 179.150575,272.293715 178.484982,272.536766 C178.008462,272.704851 177.512562,272.829234 177.018071,272.956979 C176.170179,273.185574 175.290099,273.387277 174.398585,273.482077 C173.798375,273.542587 173.234276,273.586289 172.617335,273.586289 C171.745604,273.586289 170.834979,273.495523 169.99785,273.377864 C169.143454,273.243396 168.295562,273.105566 167.483144,272.852766 C167.409044,272.819149 167.34735,272.772085 167.273585,272.748553 C167.200156,272.714936 167.137121,272.667872 167.064026,272.64434 C166.383815,272.409021 165.71601,272.217404 165.073218,271.9088 C165.029965,271.875183 165.011524,271.824757 164.968606,271.804587 C164.287188,271.471779 163.614554,271.062996 162.977797,270.64917 C162.942929,270.648625 162.908054,270.648625 162.873185,270.64917 L162.663626,270.544957 L162.349456,270.336532 L161.616,269.811098 C157.430524,266.526715 154.805506,261.392387 154.805506,255.629085 C154.805506,245.732234 162.746947,237.874928 172.618006,237.874928 L172.617,237.870894 Z M172.617,245.329502 C166.913312,245.329502 162.243671,250.011345 162.243671,255.729936 C162.243671,261.448191 166.913312,266.025149 172.617,266.025149 C178.320688,266.025149 182.885382,261.448191 182.885382,255.729936 C182.885382,250.011345 178.320688,245.329502 172.617,245.329502 Z M164.444206,278.841638 C165.645732,279.270255 166.928333,279.544234 168.216265,279.786949 C168.291706,279.820566 168.350047,279.877715 168.425824,279.891162 C168.599506,279.924779 168.775804,279.968481 168.949721,279.995374 L168.949721,303.737396 L164.444038,305.523468 L164.444038,289.765489 L164.444038,286.403787 L164.444038,278.839957 L164.444206,278.841638 Z M180.789794,278.841638 L180.789794,286.405468 L180.789794,289.76717 L180.789794,305.525149 L175.655771,303.52897 L175.655771,280.102277 C176.037168,280.038404 176.433653,279.974532 176.808344,279.893851 C178.173058,279.651809 179.510848,279.302191 180.789962,278.843319 L180.789794,278.841638 Z" id="Shape"></path>
            </g>
        </g>
        <g id="graphql" transform="translate(210.000000, 65.000000)" fill="#E535AB">
            <path d="M30.9919899,6.64659788 L43.0059969,13.5325402 C43.3528465,13.1682289 43.7508814,12.8555541 44.1877758,12.6041982 C46.679302,11.1822461 49.8573893,12.026505 51.304652,14.5 C52.7370867,16.973495 51.886604,20.1281237 49.3948746,21.5647954 C48.9612336,21.8126907 48.493937,21.9973994 48.0073306,22.1132511 L48.0073306,35.8901767 C48.4886219,36.0062231 48.9508276,36.1896709 49.3800466,36.435003 C51.886604,37.8716747 52.7370867,41.026505 51.2898239,43.5 C49.8573893,45.9732934 46.6644739,46.8175523 44.1727446,45.3958018 C43.6900256,45.1208847 43.2551649,44.7704353 42.8849347,44.3579703 L30.9440525,51.2015686 C31.1189279,51.7271916 31.2077381,52.2772574 31.2070989,52.8308047 C31.2070989,55.6745074 28.8796973,58 26,58 C23.1203027,58 20.7929011,55.689227 20.7929011,52.8308047 C20.7929011,52.3226766 20.8664322,51.8318894 21.0035413,51.3683233 L8.99278433,44.4843974 C8.64973838,44.8414837 8.25730395,45.1483542 7.82725544,45.3958018 C5.320698,46.8175523 2.14261066,45.9732934 0.710176053,43.5 C-0.722055431,41.026505 0.128427227,37.8716747 2.61995345,36.435003 C3.04917321,36.1896255 3.51137578,36.006111 3.99266943,35.8899751 L3.99266943,22.1132511 C3.50606299,21.9973994 3.03876642,21.8126907 2.60512535,21.5647954 C0.113396008,20.1430449 -0.737086651,16.973495 0.695347958,14.5 C2.12778257,12.026505 5.32049487,11.1822461 7.81222422,12.6041982 C8.24672629,12.8542124 8.64280085,13.1648827 8.98831559,13.5266927 L21.0057757,6.63893563 C20.8641127,6.1616372 20.7924189,5.66657709 20.7929011,5.16899362 C20.7929011,2.31077304 23.1203027,0 26,0 C28.8796973,0 31.2070989,2.3105714 31.2070989,5.16899362 C31.2070989,5.68276759 31.1319428,6.17859576 30.9919899,6.64659788 Z M29.7403362,8.76823435 L41.7829838,15.6703077 C41.3955433,17.0147386 41.574172,18.4576854 42.2779984,19.6689936 C43.011075,20.9348778 44.2052445,21.7740958 45.5306324,22.1011528 L45.5306324,35.8952177 C45.462992,35.9115504 45.3957577,35.9294962 45.3289297,35.9484502 L29.6003834,8.90635647 C29.6479145,8.86118953 29.6946332,8.81521603 29.7403362,8.76843598 L29.7403362,8.76823435 Z M22.4028666,8.90938104 L6.67452339,35.9510715 C6.6065152,35.9315516 6.53811591,35.9134005 6.46936755,35.8966292 L6.46936755,22.1011528 C7.7947555,21.7740958 8.98892497,20.9348778 9.72200161,19.6689936 C10.4272598,18.4553068 10.6052082,17.0091662 10.214985,15.6626455 L22.2541794,8.76258848 C22.3027262,8.8123931 22.3522886,8.86139116 22.4028666,8.9091794 L22.4028666,8.90938104 Z M27.4549814,10.1343327 L43.1796684,37.169974 C42.8194725,37.5111579 42.5107274,37.9021258 42.2629672,38.3308047 C42.0158266,38.7568827 41.8310263,39.215706 41.7141245,39.6934753 L10.2862817,39.6934753 C10.1692258,39.215693 9.98428983,38.7568724 9.73703283,38.3308047 C9.48840913,37.9050813 9.18025087,37.5164906 8.82175343,37.1766281 L24.5494873,10.1355425 C25.0210125,10.2703214 25.5093169,10.3384729 26,10.3379872 C26.5051709,10.3379872 26.9932792,10.2670106 27.4549814,10.1343327 Z M29.850836,49.3485141 L41.8152806,42.4912044 C41.779416,42.379259 41.7473718,42.2661427 41.7192026,42.1520491 L10.2795786,42.1520491 C10.2629224,42.2191946 10.2448443,42.2857351 10.2255475,42.3520741 L22.2484919,49.2430574 C23.2295728,48.2303632 24.584642,47.6592068 26,47.6618111 C27.4659054,47.6592681 28.8646019,48.2719105 29.850836,49.3485141 Z" id="Shape"></path>
        </g>
        <text id="{-graphQL:-👍,-json:" font-family="SpaceMono-Bold, Space Mono" font-size="20" font-weight="bold" letter-spacing="-0.839999974" fill="#7A7A7A">
            <tspan x="111" y="170">{</tspan>
            <tspan x="111" y="199">  graphQL: </tspan>
            <tspan x="236.4" y="199" font-family="AppleColorEmoji, Apple Color Emoji" font-weight="normal">👍</tspan>
            <tspan x="258.56" y="199">,</tspan>
            <tspan x="111" y="228">  json: </tspan>
            <tspan x="202.2" y="228" font-family="AppleColorEmoji, Apple Color Emoji" font-weight="normal">👍</tspan>
            <tspan x="224.36" y="228"></tspan>
            <tspan x="111" y="257">}</tspan>
        </text>
    </g>
</svg>